<?xml version="1.0" encoding="UTF-8"?><svg id="_이어_1" xmlns="http://www.w3.org/2000/svg" viewBox="0 0 905.25 383.25"><defs><style>.cls-1{fill:none;stroke:#000;stroke-miterlimit:10;stroke-width:13px;}</style></defs><g><path d="M139.12,118.99h39.23v114.62h56.59v30.91h-95.82V118.99Z"/><path d="M285.2,264.52h-39.23V118.99h39.23v145.53Z"/><path d="M316.11,133.99c10.3-11.75,25.49-17.54,45.02-17.54,37.24,0,58.57,20.43,59.66,54.05h-38.87c-.54-14.28-7.05-22.78-20.79-22.78-7.05,0-11.93,2.35-15.73,7.77-4.52,6.51-5.97,16.45-5.97,36.16s1.45,29.83,5.97,36.52c3.8,5.42,8.68,7.77,15.73,7.77,13.74,0,20.43-8.68,20.79-22.78h38.87c-1.08,33.63-22.42,53.87-59.66,53.87-19.53,0-34.71-5.79-45.02-17.54-11.93-13.56-15.91-32.9-15.91-57.85s3.98-44.11,15.91-57.67Z"/><path d="M508.65,264.52l-23.5-52.43-23.5,52.43h-40.32l37.42-75.21-34.35-70.33h40.32l20.43,47.91,20.25-47.91h40.32l-34.35,70.33,37.42,75.21h-40.13Z"/><path d="M559.82,118.99h94.73v31.09h-55.5v24.23h48.09v31.28h-48.09v28.02h56.59v30.91h-95.82V118.99Z"/><path d="M670.28,118.99h39.23v114.62h56.59v30.91h-95.82V118.99Z"/></g><rect class="cls-1" x="90.61" y="88.25" width="724" height="207.01"/><line class="cls-1" x1="203.12" y1="88.25" x2="203.12"/><line class="cls-1" x1="772.12" y1="383.25" x2="772.12" y2="295"/><line class="cls-1" x1="455.12" y1="383.25" x2="455.12" y2="295"/><line class="cls-1" x1="124.12" y1="383.25" x2="124.12" y2="295"/><line class="cls-1" y1="156.12" x2="88.25" y2="156.12"/><line class="cls-1" x1="817" y1="239.12" x2="905.25" y2="239.12"/><line class="cls-1" x1="658.12" y1="88.25" x2="658.12"/><line class="cls-1" x1="735.12" y1="88.25" x2="735.12"/></svg>